# xmcd
#
# Track frame offsets:
#	150
#	13223
#	23461
#	36069
#	47627
#	59852
#	72617
#	84587
#	98057
#	112765
#	124758
#	138761
#
# Disc length: 2036 seconds
#
# Revision: 2
# Processed by: cddbd v1.5.2PL0 Copyright (c) Steve Scherf et al.
# Submitted via: audiograbber 1.83.01
#
DISCID=9c07f20c
DTITLE=The Sons Of The Pioneers - The Best Of
DYEAR=1966
DGENRE=Country
TTITLE0=Cool Water
TTITLE1=My Best To You
TTITLE2=No One To Cry To
TTITLE3=San Antonio Rose
TTITLE4=I Still Do
TTITLE5=Have I Told YOu Lately That I Love You
TTITLE6=Tumbling Tumbleweeds
TTITLE7=The Everlasting Hills Of Oklahoma
TTITLE8=Riders In The Sky
TTITLE9=The Last Round-Up
TTITLE10=Room Full Of Roses
TTITLE11=Chant Of The Wanderer
EXTD=
EXTT0=
EXTT1=
EXTT2=
EXTT3=
EXTT4=
EXTT5=
EXTT6=
EXTT7=
EXTT8=
EXTT9=
EXTT10=
EXTT11=
PLAYORDER=
